<svg xmlns="http://www.w3.org/2000/svg" viewBox="0 0 353.53 257.32"><defs><style>.cls-1,.cls-4{fill:#fff;}.cls-2,.cls-3,.cls-5{fill:none;}.cls-2,.cls-3,.cls-5,.cls-7{stroke:#fff;}.cls-2,.cls-7{stroke-linecap:round;stroke-linejoin:round;}.cls-3,.cls-5{stroke-miterlimit:10;}.cls-4{opacity:0.14;}.cls-5{stroke-width:3px;}.cls-6{fill:#1d092c;}.cls-7{fill:#1b0a2c;stroke-width:0.5px;}</style></defs><g id="Layer_2" data-name="Layer 2"><g id="Layer_1-2" data-name="Layer 1"><circle class="cls-1" cx="34.62" cy="46.08" r="2.5"/><circle class="cls-1" cx="44.86" cy="46.08" r="2.5"/><circle class="cls-1" cx="55.09" cy="46.08" r="2.5"/><circle class="cls-1" cx="133.2" cy="100.77" r="1.51"/><line class="cls-2" x1="37.12" y1="100.28" x2="59.14" y2="78.26"/><line class="cls-2" x1="56.67" y1="98.41" x2="90.99" y2="64.09"/><line class="cls-2" x1="94.01" y1="61.08" x2="101.8" y2="53.29"/><line class="cls-2" x1="62.25" y1="75.15" x2="73.26" y2="64.14"/><line class="cls-2" x1="236.89" y1="181.89" x2="258.9" y2="159.88"/><line class="cls-2" x1="258.27" y1="178.19" x2="272.88" y2="163.58"/><line class="cls-2" x1="228.53" y1="102.64" x2="243.13" y2="88.03"/><line class="cls-2" x1="213.68" y1="117.48" x2="220.99" y2="110.17"/><line class="cls-2" x1="94.31" y1="196.91" x2="101.61" y2="189.61"/><line class="cls-2" x1="267.28" y1="151.5" x2="288.59" y2="130.19"/><path class="cls-1" d="M340.08,105.32l2,11a11.33,11.33,0,0,0,8,8.9l3.47,1-3.47,1a11.33,11.33,0,0,0-8,8.9l-2,11-1.95-11a11.35,11.35,0,0,0-8-8.9l-3.47-1,3.47-1a11.35,11.35,0,0,0,8-8.9Z"/><path class="cls-1" d="M73.83,237.09l1.2,5.32A6.2,6.2,0,0,0,80,246.72l2.14.49-2.14.48A6.19,6.19,0,0,0,75,252l-1.2,5.31L72.63,252a6.19,6.19,0,0,0-4.94-4.32l-2.13-.48,2.13-.49a6.2,6.2,0,0,0,4.94-4.31Z"/><path class="cls-1" d="M10.23,158.09,11.72,166a8.34,8.34,0,0,0,6.11,6.39l2.64.72-2.64.72a8.32,8.32,0,0,0-6.11,6.38L10.23,188l-1.48-7.87a8.32,8.32,0,0,0-6.11-6.38L0,173.07l2.64-.72A8.34,8.34,0,0,0,8.75,166Z"/><path class="cls-1" d="M225.44,10.74l1.76,10.64A10.74,10.74,0,0,0,234.41,30l3.13,1-3.13,1a10.74,10.74,0,0,0-7.21,8.64l-1.76,10.64-1.75-10.64A10.75,10.75,0,0,0,216.47,32l-3.12-1,3.12-1a10.75,10.75,0,0,0,7.22-8.63Z"/><path class="cls-1" d="M297.77,213.65h0a15.23,15.23,0,0,1-7.11,7.11h0a15.25,15.25,0,0,1,7.11,7.1h0a15.28,15.28,0,0,1,7.1-7.1h0A15.25,15.25,0,0,1,297.77,213.65Z"/><path class="cls-1" d="M39.27,174.58h0a12,12,0,0,1-5.6,5.59h0a12,12,0,0,1,5.6,5.59h0a12,12,0,0,1,5.59-5.59h0A12,12,0,0,1,39.27,174.58Z"/><path class="cls-1" d="M177.2,10.74h0a16.74,16.74,0,0,1-5.59,8.5h0a16.69,16.69,0,0,1,5.59,8.5h0a16.64,16.64,0,0,1,5.6-8.5h0A16.69,16.69,0,0,1,177.2,10.74Z"/><circle class="cls-1" cx="326.64" cy="100.28" r="3.79"/><circle class="cls-1" cx="190.4" cy="3.79" r="3.79"/><circle class="cls-1" cx="340.08" cy="88.04" r="1.8"/><circle class="cls-1" cx="186.61" cy="225.49" r="1.8"/><circle class="cls-1" cx="129.38" cy="20.9" r="1.8"/><circle class="cls-1" cx="10.23" cy="210.63" r="1.8"/><rect class="cls-3" x="94.11" y="93.6" width="78.17" height="148.93" rx="14.03"/><polygon class="cls-4" points="94.18 201.47 172.31 123.34 172.31 149.94 94.84 227.41 94.18 201.47"/><path class="cls-4" d="M87.81,186.06H24.45v7.79a7.65,7.65,0,0,0,7.63,7.62H87.81Z"/><path class="cls-4" d="M294,37H281.72V170a16.1,16.1,0,0,1-16.1,16.1h-87v15.41H294a7.65,7.65,0,0,0,7.63-7.62V44.64A7.65,7.65,0,0,0,294,37Z"/><path class="cls-3" d="M87.81,201.47h-54a11.1,11.1,0,0,0,10.9,9.16H87.81Z"/><path class="cls-3" d="M301.61,46.35V193.71a7.78,7.78,0,0,1-7.77,7.76H178.59v9.16h121.1a11.11,11.11,0,0,0,11.08-11.08V57.25A11.11,11.11,0,0,0,301.61,46.35Z"/><polygon class="cls-4" points="94.18 192.01 172.38 113.81 172.38 119.13 94.57 196.94 94.18 192.01"/><rect class="cls-5" x="87.81" y="87.04" width="90.77" height="162.19" rx="19.63"/><path class="cls-4" d="M175.64,96.36a19.48,19.48,0,0,0-10.31-3H113.81a19.8,19.8,0,0,0-2.57.19h47a14,14,0,0,1,14,14V228.49a14,14,0,0,1-14,14h-50.1a14.05,14.05,0,0,1-14-12.64V236a19.48,19.48,0,0,0,2.95,10.31,19.48,19.48,0,0,0,10.31,2.95H159a19.63,19.63,0,0,0,19.63-19.63V106.67A19.48,19.48,0,0,0,175.64,96.36Z"/><path class="cls-5" d="M294,37H32.08a7.65,7.65,0,0,0-7.63,7.63V193.85a7.65,7.65,0,0,0,7.63,7.62H87.81v-94.8A19.63,19.63,0,0,1,107.44,87H159a19.63,19.63,0,0,1,19.63,19.63v94.8H294a7.65,7.65,0,0,0,7.63-7.62V44.64A7.65,7.65,0,0,0,294,37Z"/><line class="cls-2" x1="157.68" y1="156.9" x2="172.28" y2="142.29"/><path class="cls-1" d="M140.35,178.36h-14.3a4.35,4.35,0,0,1-4.34-4.34l1-8.55c0-2.39,1-4.34,4.34-4.34h13.3c1.38,0,3.33,2,3.33,4.34l1,8.55A4.35,4.35,0,0,1,140.35,178.36Z"/><path class="cls-1" d="M133.2,157.77a5.64,5.64,0,1,0,5.64,5.64A5.63,5.63,0,0,0,133.2,157.77Zm0,10.1a4.47,4.47,0,1,1,4.47-4.46A4.47,4.47,0,0,1,133.2,167.87Z"/><path class="cls-6" d="M138.76,164.06h-1.19a4.47,4.47,0,1,1-8.75,0h-1.18a5.29,5.29,0,0,0-.08.9,5.64,5.64,0,1,0,11.28,0A5.29,5.29,0,0,0,138.76,164.06Z"/><path class="cls-7" d="M148.22,180.44,141.41,174a.21.21,0,0,0-.13,0,.2.2,0,0,0-.2.19v9.35a.2.2,0,0,0,.2.19.16.16,0,0,0,.13-.06l2-1.94,1.44,3.06h0a.2.2,0,0,0,.17.11l.08,0,1.76-.88a.21.21,0,0,0,.11-.18.19.19,0,0,0,0-.08h0l-1.42-2.92h2.61a.2.2,0,0,0,.2-.2A.21.21,0,0,0,148.22,180.44Z"/></g></g></svg>