<svg xmlns="http://www.w3.org/2000/svg" viewBox="0 0 137.98 42.94"><title>Asset 2</title><g id="Layer_2" data-name="Layer 2"><g id="Layer_1-2" data-name="Layer 1"><path d="M0,0H6.5l3,33h.12L12.82,0h7.36l3.19,33h.13l3-33h5.83L28,42.94h-8.4L16.5,14h-.12L13.31,42.94H4.36Z"/><path d="M35.76,0H54.17V6.13H42.51V17.48h9.26v6.14H42.51V36.81H54.17v6.13H35.76Z"/><path d="M67.35,26.68V35c.15,5.17-2.88,8-8.43,8V39c2.52,0,3.63-1.26,3.55-4H59.81V26.68ZM59.81,0h7.47V8.28H59.81Z"/><path d="M72.65,0h10c3.48,0,6,.81,7.61,2.42s2.39,4.1,2.39,7.46v2.63q0,6.69-4.42,8.47v.12a5.29,5.29,0,0,1,3.47,3,15.21,15.21,0,0,1,1,6.07v7.55a29.38,29.38,0,0,0,.12,3,7.57,7.57,0,0,0,.62,2.24H86.58a9.36,9.36,0,0,1-.49-2A27.24,27.24,0,0,1,86,37.67V29.81c0-2-.31-3.33-.95-4.11a4,4,0,0,0-3.28-1.16H79.4v18.4H72.65Zm9.2,18.4a4,4,0,0,0,3-1,4.9,4.9,0,0,0,1-3.5V10.55a5.38,5.38,0,0,0-.83-3.37,3.11,3.11,0,0,0-2.6-1H79.4V18.4Z"/><path d="M102.53,6.13H95.47V0h20.86V6.13h-7V42.94h-6.75Z"/><path d="M118.23,36.93l12.52-30.8h-11.9V0H138V6l-12.51,30.8H138v6.13H118.23Z"/></g></g></svg>