<?xml version="1.0" encoding="utf-8"?>
<!-- Generator: Adobe Illustrator 25.1.0, SVG Export Plug-In . SVG Version: 6.00 Build 0)  -->
<svg version="1.1" id="Layer_1" xmlns="http://www.w3.org/2000/svg" xmlns:xlink="http://www.w3.org/1999/xlink" x="0px" y="0px"
	 viewBox="0 0 138 42.9" style="enable-background:new 0 0 138 42.9;" xml:space="preserve">
<style type="text/css">
	.st0{fill:#FFFFFF;}
</style>
<g id="Layer_2_1_">
	<g id="Layer_1-2">
		<path class="st0" d="M0,0h6.5l3,33h0.1l3.2-33h7.4l3.2,33h0.1l3-33h5.8L28,42.9h-8.4L16.5,14h-0.1l-3.1,28.9h-9L0,0z"/>
		<path class="st0" d="M35.8,0h18.4v6.1H42.5v11.3h9.3v6.1h-9.3v13.2h11.7v6.1H35.8V0z"/>
		<path class="st0" d="M67.3,22.7V31v4.1c0.1,5.1-2.9,7.9-8.4,7.9v-4c2.5,0,3.6-1.2,3.6-3.9c0,0,0-4,0-4.1h-2.7v-8.3
			C59.8,22.7,67.3,22.7,67.3,22.7z M59.8,0h7.5v8.3h-7.5C59.8,8.3,59.8,0,59.8,0z"/>
		<path class="st0" d="M72.7,0h10c3.5,0,6,0.8,7.6,2.4s2.4,4.1,2.4,7.5v2.6c0,4.5-1.5,7.3-4.4,8.5v0.1c1.6,0.4,2.8,1.5,3.5,3
			c0.7,1.9,1.1,4,1,6.1v7.6c0,1,0,2,0.1,3c0.1,0.8,0.3,1.5,0.6,2.2h-6.9c-0.2-0.6-0.4-1.3-0.5-2C86,39.9,86,38.8,86,37.7v-7.9
			c0-2-0.3-3.3-0.9-4.1c-0.9-0.9-2.1-1.3-3.3-1.2h-2.4v18.4h-6.8V0H72.7z M81.8,18.4c1.1,0.1,2.2-0.3,3-1c0.8-1,1.1-2.2,1-3.5v-3.3
			C86,9.4,85.7,8.2,85,7.2c-0.7-0.7-1.6-1.1-2.6-1h-3v12.2H81.8z"/>
		<path class="st0" d="M102.5,6.1h-7.1V0h20.9v6.1h-7v36.8h-6.8V6.1z"/>
		<path class="st0" d="M118.2,36.9l12.5-30.8h-11.9V0H138v6l-12.5,30.8H138v6.1h-19.8V36.9z"/>
	</g>
</g>
</svg>
