<?xml version="1.0" encoding="UTF-8"?><svg id="Layer_2" xmlns="http://www.w3.org/2000/svg" xmlns:xlink="http://www.w3.org/1999/xlink" viewBox="0 0 993.05 224.12"><defs><style>.cls-1{fill:url(#linear-gradient-2);}.cls-2{fill:url(#linear-gradient-6);}.cls-3{fill:url(#linear-gradient-5);}.cls-4{fill:url(#linear-gradient-3);}.cls-5{fill:url(#linear-gradient);}.cls-6{fill:url(#linear-gradient-4);}</style><linearGradient id="linear-gradient" x1="18" y1="32.47" x2="1427.78" y2="732.92" gradientTransform="matrix(1, 0, 0, 1, 0, 0)" gradientUnits="userSpaceOnUse"><stop offset="0" stop-color="#007fff"/><stop offset="1" stop-color="#00f9ff"/></linearGradient><linearGradient id="linear-gradient-2" x1="54.88" y1="-41.75" x2="1464.66" y2="658.7" gradientTransform="matrix(1, 0, 0, 1, 0, 0)" gradientUnits="userSpaceOnUse"><stop offset="0" stop-color="#0084ff"/><stop offset="1" stop-color="#00f9ff"/></linearGradient><linearGradient id="linear-gradient-3" x1="55.14" y1="-42.28" x2="1464.92" y2="658.16" xlink:href="#linear-gradient-2"/><linearGradient id="linear-gradient-4" x1="101.93" y1="-136.45" x2="1511.71" y2="563.99" xlink:href="#linear-gradient-2"/><linearGradient id="linear-gradient-5" x1="144.54" y1="-222.2" x2="1554.31" y2="478.25" xlink:href="#linear-gradient-2"/><linearGradient id="linear-gradient-6" x1="170.85" y1="-275.17" x2="1580.63" y2="425.28" xlink:href="#linear-gradient-2"/></defs><g id="Layer_1-2"><g><path class="cls-5" d="M157.77,179.29h-39.44l-10.81-90.91-54.34,90.91H13.73L0,0H49.96l4.09,97.2L108.98,0h34.48l9.93,97.2L201.01,0h51.42l-94.66,179.29Z"/><path class="cls-1" d="M398.8,36.77h-85.6l-7.89,33.74h73.92l-8.47,36.76h-73.92l-8.18,35.25h87.36l-8.47,36.77H231.39L273.17,0h134.1l-8.47,36.77Z"/><path class="cls-4" d="M449.93,191.88l-55.8,32.23,20.74-88.64h48.21l-13.15,56.41Zm18.41-76.3h-49.96l10.52-45.33h49.96l-10.52,45.33Z"/><path class="cls-6" d="M619.38,106.01l27.76,73.28h-53.17l-21.91-67.99h-18.41l-16.07,67.99h-48.5L530.85,0h73.92c43.53,0,59.6,24.17,59.6,51.87,0,19.89-14.02,43.06-44.99,54.14Zm-22.79-68.75h-25.71l-9.35,39.28h25.42c23.08,0,28.63-15.11,28.63-22.41,0-11.08-7.01-16.87-18.99-16.87Z"/><path class="cls-3" d="M832.36,37.02h-47.62l-33.01,142.28h-48.5l33.01-142.28h-49.67L695.34,0h145.79l-8.76,37.02Z"/><path class="cls-2" d="M985.45,31.98l-99.63,110.29h75.96l-8.76,37.02h-135.85l7.6-31.98,99.33-110.3h-72.16L860.41,0h132.64l-7.6,31.98Z"/></g></g></svg>