<?xml version="1.0" encoding="UTF-8"?><svg id="Layer_2" xmlns="http://www.w3.org/2000/svg" viewBox="0 0 582 129.45"><defs><style>.cls-1{fill:#181a28;}</style></defs><g id="Layer_1-2"><g><path class="cls-1" d="M91.19,105.2h-20.13c-1.02,0-1.88-.76-2.01-1.78l-5.43-45.68c-.23-1.91-2.75-2.45-3.74-.8l-28.26,47.27c-.36,.61-1.02,.98-1.73,.98H9.77c-1.06,0-1.93-.81-2.01-1.86L0,2.17C-.08,1,.84,0,2.02,0H27.22c1.08,0,1.97,.85,2.02,1.93l2.02,48.04c.09,2.03,2.78,2.68,3.78,.91L63.2,1.03c.36-.63,1.03-1.03,1.76-1.03h17.23c1.04,0,1.9,.78,2.01,1.81l4.93,48.2c.21,2.02,2.93,2.51,3.82,.68L117.23,1.13c.34-.69,1.04-1.13,1.81-1.13h25.56c1.52,0,2.5,1.62,1.79,2.96l-53.41,101.17c-.35,.66-1.04,1.08-1.79,1.08Z"/><path class="cls-1" d="M232.24,21.57h-47.02c-.94,0-1.75,.65-1.97,1.56l-3.68,15.76c-.3,1.27,.67,2.48,1.97,2.48h38.29c1.3,0,2.26,1.21,1.97,2.47l-4.04,17.53c-.21,.92-1.03,1.57-1.97,1.57h-40.16c-.94,0-1.75,.65-1.97,1.56l-3.86,16.65c-.29,1.27,.67,2.48,1.97,2.48h46.18c1.3,0,2.26,1.21,1.97,2.47l-4.04,17.53c-.21,.92-1.03,1.57-1.97,1.57h-75.74c-1.3,0-2.26-1.21-1.97-2.48L159.76,1.56c.21-.91,1.03-1.56,1.97-1.56h74.55c1.3,0,2.26,1.21,1.97,2.47l-4.04,17.53c-.21,.92-1.03,1.57-1.97,1.57Z"/><path class="cls-1" d="M263.08,113.03l-27.95,16.14c-1.53,.88-3.38-.49-2.98-2.21l10.74-45.91c.21-.91,1.03-1.56,1.97-1.56h24.14c1.3,0,2.26,1.21,1.97,2.48l-6.94,29.77c-.13,.54-.47,1.01-.96,1.29Zm9.95-45.21h-25.17c-1.3,0-2.26-1.21-1.97-2.48l5.23-22.56c.21-.91,1.03-1.56,1.97-1.56h25.17c1.3,0,2.26,1.21,1.97,2.48l-5.23,22.56c-.21,.91-1.03,1.56-1.97,1.56Z"/><path class="cls-1" d="M363.99,64.09l14.54,38.38c.5,1.32-.48,2.73-1.89,2.73h-26.81c-.88,0-1.65-.57-1.92-1.4l-11.96-37.1c-.27-.83-1.05-1.4-1.92-1.4h-7.73c-.94,0-1.75,.64-1.97,1.55l-8.69,36.79c-.22,.91-1.03,1.55-1.97,1.55h-24.32c-1.3,0-2.26-1.21-1.97-2.48L310.96,1.56c.21-.91,1.03-1.56,1.97-1.56h41.77c25.54,0,34.97,14.18,34.97,30.44,0,11.27-7.68,24.34-24.57,31.08-1.01,.4-1.5,1.56-1.12,2.58Zm-14.09-42.22h-13.49c-.94,0-1.75,.64-1.96,1.55l-4.52,19.01c-.3,1.27,.66,2.49,1.96,2.49h12.36c13.54,0,16.8-8.87,16.8-13.15,0-6.5-4.11-9.9-11.14-9.9Z"/><path class="cls-1" d="M486.65,21.72h-24.74c-.94,0-1.75,.65-1.97,1.56l-18.65,80.36c-.21,.91-1.03,1.56-1.97,1.56h-24.31c-1.3,0-2.26-1.21-1.97-2.48l18.22-78.53c.29-1.27-.67-2.48-1.97-2.48h-24.05c-1.3,0-2.27-1.22-1.96-2.48l4.19-17.68c.22-.91,1.03-1.55,1.96-1.55h81.39c1.3,0,2.27,1.22,1.96,2.48l-4.19,17.68c-.22,.91-1.03,1.55-1.96,1.55Z"/><path class="cls-1" d="M577.73,19.15l-55.07,60.96c-1.17,1.3-.25,3.37,1.5,3.37h37.47c1.3,0,2.27,1.22,1.96,2.48l-4.19,17.68c-.22,.91-1.03,1.55-1.96,1.55h-75.56c-1.3,0-2.27-1.22-1.96-2.49l3.75-15.78c.08-.33,.24-.63,.46-.88l54.91-60.96c1.17-1.3,.25-3.37-1.5-3.37h-35.27c-1.3,0-2.26-1.21-1.97-2.47l4.05-17.68c.21-.92,1.03-1.57,1.97-1.57h73.67c1.3,0,2.27,1.22,1.96,2.49l-3.75,15.78c-.08,.33-.24,.64-.47,.89Z"/></g></g></svg>