<?xml version="1.0" standalone="no"?>
<!DOCTYPE svg PUBLIC "-//W3C//DTD SVG 20010904//EN"
 "http://www.w3.org/TR/2001/REC-SVG-20010904/DTD/svg10.dtd">
<svg version="1.0" xmlns="http://www.w3.org/2000/svg"
 width="579.000000pt" height="579.000000pt" viewBox="0 0 579.000000 579.000000"
 preserveAspectRatio="xMidYMid meet">
<metadata>
Created by potrace 1.14, written by Peter Selinger 2001-2017
</metadata>
<g transform="translate(0.000000,579.000000) scale(0.100000,-0.100000)"
fill="#000000" stroke="none">
<path d="M10 5023 c-1 -5 57 -772 127 -1705 l128 -1698 375 0 375 0 510 861
c280 474 510 858 512 853 1 -5 45 -373 98 -819 52 -445 97 -829 100 -853 l6
-42 376 2 375 3 217 415 c119 228 414 793 656 1255 374 718 866 1660 896 1718
9 16 -17 17 -476 17 l-485 0 -24 -52 c-13 -29 -81 -170 -151 -313 -102 -209
-440 -903 -678 -1393 -22 -45 -41 -81 -42 -80 -2 2 -45 416 -96 921 l-93 917
-327 0 -327 0 -312 -557 c-172 -307 -403 -720 -514 -918 -201 -359 -201 -359
-208 -320 -4 22 -21 393 -38 825 -17 432 -33 827 -37 878 l-6 92 -468 0 c-258
0 -469 -3 -469 -7z"/>
<path d="M4750 3278 c-51 -227 -96 -421 -98 -430 -4 -17 23 -18 467 -18 259 0
471 1 471 3 0 1 44 194 98 430 l98 427 -471 0 -470 0 -95 -412z"/>
<path d="M4575 2428 c-3 -13 -23 -102 -46 -198 -22 -96 -108 -465 -190 -819
-82 -354 -148 -645 -147 -646 8 -7 1044 608 1050 623 5 9 60 242 123 517 63
275 117 510 120 523 l5 22 -455 0 -455 0 -5 -22z"/>
</g>
</svg>
