<?xml version="1.0" standalone="no"?>
<!DOCTYPE svg PUBLIC "-//W3C//DTD SVG 20010904//EN"
 "http://www.w3.org/TR/2001/REC-SVG-20010904/DTD/svg10.dtd">
<svg version="1.0" xmlns="http://www.w3.org/2000/svg"
 width="634.000000pt" height="634.000000pt" viewBox="0 0 634.000000 634.000000"
 preserveAspectRatio="xMidYMid meet">
<metadata>
Created by potrace 1.11, written by Peter Selinger 2001-2013
</metadata>
<g transform="translate(0.000000,634.000000) scale(0.100000,-0.100000)"
fill="#000000" stroke="none">
<path d="M860 5293 c0 -16 97 -982 215 -2148 118 -1165 215 -2121 215 -2122 0
-2 204 -3 453 -3 l453 0 148 1403 c138 1313 162 1526 165 1469 0 -12 69 -659
151 -1437 83 -779 150 -1420 150 -1425 0 -6 152 -10 425 -10 l424 0 5 33 c3
17 100 970 216 2117 115 1147 212 2100 215 2118 l6 32 -298 -2 -298 -3 -151
-1650 c-110 -1214 -152 -1635 -157 -1595 -4 30 -74 759 -157 1620 -83 861
-153 1580 -156 1598 l-5 32 -369 0 -369 0 -6 -32 c-3 -18 -75 -757 -160 -1643
-85 -885 -156 -1614 -156 -1620 -1 -5 -69 733 -153 1640 l-152 1650 -327 3
-327 2 0 -27z"/>
<path d="M4720 4900 l0 -420 373 2 372 3 3 418 2 417 -375 0 -375 0 0 -420z"/>
<path d="M4720 2230 l0 -420 131 0 132 0 -6 -80 c-13 -188 -124 -300 -299
-300 l-48 0 0 -206 0 -207 113 6 c139 7 256 35 367 89 68 33 101 57 165 122
91 92 130 158 171 291 l28 90 4 518 3 517 -380 0 -381 0 0 -420z"/>
</g>
</svg>
