<?xml version="1.0" encoding="utf-8"?>
<!-- Generator: Adobe Illustrator 25.1.0, SVG Export Plug-In . SVG Version: 6.00 Build 0)  -->
<svg version="1.1" id="Layer_1" xmlns="http://www.w3.org/2000/svg" xmlns:xlink="http://www.w3.org/1999/xlink" x="0px" y="0px"
	 viewBox="0 0 63.3 63.3" style="enable-background:new 0 0 63.3 63.3;" xml:space="preserve">
<style type="text/css">
	.st0{fill:#FFFFFF;}
</style>
<g id="Layer_2_1_">
	<g id="Layer_1-2">
		<path class="st0" d="M12.7,0h37.8c7,0,12.7,5.7,12.7,12.7v37.8c0,7-5.7,12.7-12.7,12.7H12.7C5.7,63.3,0,57.6,0,50.5V12.7
			C0,5.7,5.7,0,12.7,0z"/>
		<path d="M8.6,10.2h6.5l3,33h0.1l3.2-33h7.4l3.2,33h0.1l3-33h5.8l-4.3,42.9h-8.4l-3.1-29h-0.1l-3.1,29h-9L8.6,10.2z"/>
	</g>
</g>
<path d="M54.7,32.8v8.3c0,0,0,4.1,0,4.1c0.1,5.1-2.9,7.9-8.4,7.9v-4c2.5,0,3.6-1.2,3.6-3.9c0,0,0-4,0-4.1h-2.7v-8.3H54.7z
	 M47.2,10.1h7.5v8.3h-7.5V10.1z"/>
</svg>
